# xmcd
#
# Track frame offsets:
#	150
#	14675
#	32565
#	43755
#	61939
#	78385
#	91522
#	106520
#	121475
#	133722
#	149087
#	178234
#
# Disc length: 3548 seconds
#
# Revision: 1
# Processed by: cddbd v1.5.2PL0 Copyright (c) Steve Scherf et al.
# Submitted via: audiograbber 1.83.01
#
DISCID=9f0dda0c
DTITLE=Alison Krauss and Union Station - Home On The Highways
DYEAR=2005
DGENRE=Bluegrass
TTITLE0=Alison Krauss and Union Station - Crazy As Me
TTITLE1=Alison Krauss and Union Station - Daylight
TTITLE2=Alison Krauss and Union Station - Rain Please Go Away
TTITLE3=Alison Krauss and Union Station - Ghost In This House
TTITLE4=Alison Krauss and Union Station - Never Got Off The Ground
TTITLE5=Alison Krauss and Union Station - Unionhouse Branch
TTITLE6=Alison Krauss and Union Station - Momma Cried
TTITLE7=Alison Krauss and Union Station - Let Me Touch You For Awhile
TTITLE8=Alison Krauss and Union Station - It All Comes Down To You
TTITLE9=Alison Krauss and Union Station - Borderline
TTITLE10=Alison Krauss and Union Station - I Am A Man Of Constant Sorrow
TTITLE11=Alison Krauss and Union Station - DATA track
EXTD=ID3G:  89 YEAR: 2005
EXTT0=
EXTT1=
EXTT2=
EXTT3=
EXTT4=
EXTT5=
EXTT6=
EXTT7=
EXTT8=
EXTT9=
EXTT10=
EXTT11=
PLAYORDER=
